# xmcd
#
# Track frame offsets:
#	150
#	11408
#	29237
#	52258
#	70622
#	89375
#	106952
#	122710
#	137513
#	168312
#	186467
#	193386
#	210476
#	231302
#	247185
#	268919
#	281430
#	299219
#
# Disc length: 4161 seconds
#
# Revision: 3
# Processed by: cddbd v1.5.2PL0 Copyright (c) Steve Scherf et al.
# Submitted via: EZCDAudioConverter 7.0.6.1
#
DISCID=25103f12
DTITLE=The Sound - All Fall Down
DYEAR=2014
DGENRE=
TTITLE0=All Fall Down
TTITLE1=Party Of The Mind
TTITLE2=Monument
TTITLE3=In Suspense
TTITLE4=Where The Love Is
TTITLE5=Song And Dance
TTITLE6=Calling The New Tune
TTITLE7=Red Paint
TTITLE8=Glass And Smoke
TTITLE9=We Could Go Far
TTITLE10=The One And A Half Minute Song
TTITLE11=Sorry
TTITLE12=As Feeling Dies
TTITLE13=We Could Go Far (Original Version)
TTITLE14=Plenty
TTITLE15='Neath Dancing Waves
TTITLE16=Amber
TTITLE17=Scapegoat In A Country Churchyard
EXTD=
EXTT0=
EXTT1=
EXTT2=
EXTT3=
EXTT4=
EXTT5=
EXTT6=
EXTT7=
EXTT8=
EXTT9=
EXTT10=
EXTT11=
EXTT12=
EXTT13=
EXTT14=
EXTT15=
EXTT16=
EXTT17=
PLAYORDER=
